<?xml version="1.0" encoding="UTF-8"?>
<svg width="600" height="600" viewBox="0 0 600 600" fill="none" xmlns="http://www.w3.org/2000/svg">
  <!-- Background shape -->
  <rect width="600" height="600" rx="20" fill="#1E293B"/>
  
  <!-- Decorative elements -->
  <circle cx="300" cy="300" r="250" fill="#6366F1" fill-opacity="0.1"/>
  <circle cx="300" cy="300" r="200" fill="#6366F1" fill-opacity="0.15"/>
  
  <!-- Code brackets and symbols -->
  <path d="M180 220L120 300L180 380" stroke="#6366F1" stroke-width="12" stroke-linecap="round" stroke-linejoin="round"/>
  <path d="M420 220L480 300L420 380" stroke="#6366F1" stroke-width="12" stroke-linecap="round" stroke-linejoin="round"/>
  <path d="M330 180L270 420" stroke="#10B981" stroke-width="12" stroke-linecap="round" stroke-linejoin="round"/>
  
  <!-- Decorative code elements -->
  <rect x="200" y="180" width="60" height="12" rx="6" fill="#6366F1" fill-opacity="0.5"/>
  <rect x="200" y="210" width="120" height="12" rx="6" fill="#6366F1" fill-opacity="0.5"/>
  <rect x="200" y="240" width="90" height="12" rx="6" fill="#6366F1" fill-opacity="0.5"/>
  
  <rect x="200" y="300" width="80" height="12" rx="6" fill="#10B981" fill-opacity="0.6"/>
  <rect x="200" y="330" width="140" height="12" rx="6" fill="#10B981" fill-opacity="0.6"/>
  <rect x="200" y="360" width="100" height="12" rx="6" fill="#10B981" fill-opacity="0.6"/>
  
  <rect x="340" y="210" width="60" height="12" rx="6" fill="#6366F1" fill-opacity="0.5"/>
  <rect x="320" y="240" width="80" height="12" rx="6" fill="#6366F1" fill-opacity="0.5"/>
  
  <rect x="360" y="300" width="40" height="12" rx="6" fill="#10B981" fill-opacity="0.6"/>
  <rect x="360" y="330" width="60" height="12" rx="6" fill="#10B981" fill-opacity="0.6"/>
  <rect x="320" y="360" width="80" height="12" rx="6" fill="#10B981" fill-opacity="0.6"/>
  
  <!-- Central icon -->
  <circle cx="300" cy="300" r="70" fill="#6366F1" fill-opacity="0.2"/>
  <path d="M300 230C261.34 230 230 261.34 230 300C230 338.66 261.34 370 300 370C338.66 370 370 338.66 370 300C370 261.34 338.66 230 300 230ZM300 350C272.39 350 250 327.61 250 300C250 272.39 272.39 250 300 250C327.61 250 350 272.39 350 300C350 327.61 327.61 350 300 350Z" fill="#6366F1"/>
  <path d="M320 290H310V270C310 267.24 307.76 265 305 265H295C292.24 265 290 267.24 290 270V290H280C277.24 290 275 292.24 275 295V305C275 307.76 277.24 310 280 310H290V330C290 332.76 292.24 335 295 335H305C307.76 335 310 332.76 310 330V310H320C322.76 310 325 307.76 325 305V295C325 292.24 322.76 290 320 290Z" fill="#10B981"/>
  
  <!-- Bottom text elements -->
  <rect x="220" y="420" width="160" height="12" rx="6" fill="#6366F1" fill-opacity="0.5"/>
  <rect x="220" y="450" width="120" height="12" rx="6" fill="#6366F1" fill-opacity="0.5"/>
  <rect x="220" y="480" width="80" height="12" rx="6" fill="#6366F1" fill-opacity="0.5"/>
</svg>
